<?xml version="1.0" encoding="UTF-8" standalone="no"?>
<!-- Created with Inkscape (http://www.inkscape.org/) -->

<svg
   xmlns:dc="http://purl.org/dc/elements/1.1/"
   xmlns:cc="http://creativecommons.org/ns#"
   xmlns:rdf="http://www.w3.org/1999/02/22-rdf-syntax-ns#"
   xmlns:svg="http://www.w3.org/2000/svg"
   xmlns="http://www.w3.org/2000/svg"
   xmlns:sodipodi="http://sodipodi.sourceforge.net/DTD/sodipodi-0.dtd"
   xmlns:inkscape="http://www.inkscape.org/namespaces/inkscape"
   width="37.599998mm"
   height="12mm"
   viewBox="0 0 37.599999 11.999999"
   version="1.1"
   id="svg8"
   inkscape:version="0.92.5 (2060ec1f9f, 2020-04-08)"
   sodipodi:docname="logo.svg">
  <defs
     id="defs2" />
  <sodipodi:namedview
     id="base"
     pagecolor="#ffffff"
     bordercolor="#666666"
     borderopacity="1.0"
     inkscape:pageopacity="0.0"
     inkscape:pageshadow="2"
     inkscape:zoom="2.8"
     inkscape:cx="104.05903"
     inkscape:cy="74.706241"
     inkscape:document-units="mm"
     inkscape:current-layer="layer1"
     showgrid="false"
     units="mm"
     inkscape:window-width="1366"
     inkscape:window-height="704"
     inkscape:window-x="0"
     inkscape:window-y="27"
     inkscape:window-maximized="1" />
  <metadata
     id="metadata5">
    <rdf:RDF>
      <cc:Work
         rdf:about="">
        <dc:format>image/svg+xml</dc:format>
        <dc:type
           rdf:resource="http://purl.org/dc/dcmitype/StillImage" />
        <dc:title></dc:title>
      </cc:Work>
    </rdf:RDF>
  </metadata>
  <g
     inkscape:label="Layer 1"
     inkscape:groupmode="layer"
     id="layer1"
     transform="translate(0,-285)">
    <flowRoot
       xml:space="preserve"
       id="flowRoot10"
       style="font-style:normal;font-weight:normal;font-size:40px;line-height:1.25;font-family:sans-serif;letter-spacing:0px;word-spacing:0px;fill:#000000;fill-opacity:1;stroke:none"><flowRegion
         id="flowRegion12"><rect
           id="rect14"
           width="536.39099"
           height="362.64478"
           x="12.121831"
           y="17.033047" /></flowRegion><flowPara
         id="flowPara16" /></flowRoot>    <g
       aria-label="AIRELL"
       style="font-style:normal;font-weight:normal;font-size:43.04721451px;line-height:1.25;font-family:sans-serif;letter-spacing:-3.72533321px;word-spacing:0px;fill:#ffffff;fill-opacity:1;stroke:none;stroke-width:1.07618093"
       id="text24"
       transform="matrix(0.28051195,0,0,0.28051195,1.4140546,222.41486)">
      <path
         style="letter-spacing:-3.72533321px;fill:#ffffff;fill-opacity:1;stroke-width:4.06745529"
         d="M 38.054028,130.12109 -14.100269,266.72852 H 5.3899656 L 17.833325,231.68555 h 0.08594 l 5.496093,-15.37305 25.070313,-67.98242 25.162109,67.98242 5.552735,15.37305 h 0.210937 l 12.445315,35.04297 H 111.07161 L 59.007153,130.12109 Z"
         transform="matrix(0.26458333,0,0,0.26458333,0,192)"
         id="path3729"
         inkscape:connector-curvature="0"
         sodipodi:nodetypes="cccccccccccccc" />
      <path
         d="m 32.332811,232.40923 h 4.078821 v 30.14693 h -4.078821 z"
         style="letter-spacing:-3.72533321px;fill:#ffffff;fill-opacity:1;stroke-width:1.07618093"
         id="path3731"
         inkscape:connector-curvature="0"
         sodipodi:nodetypes="ccccc" />
      <path
         d="m 53.786021,248.42163 c 0.874994,0.29615 1.723066,0.92884 2.544215,1.89806 0.83461,0.96923 1.669221,2.30191 2.503831,3.99805 l 4.139397,8.23842 H 58.59176 l -3.856706,-7.73361 c -0.996148,-2.01922 -1.965373,-3.35863 -2.907675,-4.01825 -0.92884,-0.65961 -2.200948,-0.98941 -3.816321,-0.98941 h -4.442281 v 12.74127 h -4.078821 v -30.14693 h 9.207636 c 3.446131,0 6.017269,0.72019 7.713413,2.16056 1.696144,1.44038 2.544215,3.61441 2.544215,6.52208 0,1.89806 -0.444228,3.47305 -1.332684,4.72496 -0.874995,1.25192 -2.153833,2.12018 -3.836515,2.6048 z m -10.217244,-12.6605 v 10.70186 h 5.128815 c 1.965371,0 3.446131,-0.45096 4.442279,-1.35288 1.009609,-0.91538 1.514414,-2.2548 1.514414,-4.01824 0,-1.76345 -0.504805,-3.08941 -1.514414,-3.97786 -0.996148,-0.90192 -2.476908,-1.35288 -4.442279,-1.35288 z"
         style="letter-spacing:-3.72533321px;fill:#ffffff;fill-opacity:1;stroke-width:1.07618093"
         id="path3733"
         inkscape:connector-curvature="0"
         sodipodi:nodetypes="cccccccsccccsssccccscscsc" />
      <path
         d="m 65.312284,232.40923 h 19.061418 v 3.43267 H 69.391104 v 8.92495 h 14.356641 v 3.43266 H 69.391104 v 10.92397 h 15.346058 v 3.43268 H 65.312284 Z"
         style="letter-spacing:-3.72533321px;fill:#ffffff;fill-opacity:1;stroke-width:1.07618093"
         id="path3735"
         inkscape:connector-curvature="0"
         sodipodi:nodetypes="ccccccccccccc" />
      <path
         d="m 87.46011,232.40923 h 4.078821 v 26.71425 h 14.679709 v 3.43268 H 87.46011 Z"
         style="letter-spacing:-3.72533321px;fill:#ffffff;fill-opacity:1;stroke-width:1.07618093"
         id="path3737"
         inkscape:connector-curvature="0"
         sodipodi:nodetypes="ccccccc" />
      <path
         d="m 108.93083,232.40923 h 4.07882 v 26.71425 h 14.67972 v 3.43268 h -18.75854 z"
         style="letter-spacing:-3.72533321px;fill:#ffffff;fill-opacity:1;stroke-width:1.07618093"
         id="path3739"
         inkscape:connector-curvature="0"
         sodipodi:nodetypes="ccccccc" />
    </g>
  </g>
</svg>
